<?xml version="1.0" standalone="no"?>
<!DOCTYPE svg PUBLIC "-//W3C//DTD SVG 20010904//EN"
 "http://www.w3.org/TR/2001/REC-SVG-20010904/DTD/svg10.dtd">
<svg version="1.0" xmlns="http://www.w3.org/2000/svg"
 width="512.000000pt" height="512.000000pt" viewBox="0 0 512.000000 512.000000"
 preserveAspectRatio="xMidYMid meet">
<metadata>
Created by potrace 1.16, written by Peter Selinger 2001-2019
</metadata>
<g transform="translate(0.000000,512.000000) scale(0.100000,-0.100000)"
fill="#000000" stroke="none">
<path d="M4492 4667 l-182 -182 223 -223 222 -222 183 183 c100 100 182 187
182 192 0 13 -422 435 -435 435 -6 0 -92 -82 -193 -183z"/>
<path d="M3615 3790 l-490 -490 223 -222 222 -223 490 490 490 490 -223 223
-222 222 -490 -490z"/>
<path d="M475 4220 c-170 -34 -327 -153 -409 -309 -69 -132 -66 -74 -66 -1243
0 -1159 -3 -1100 62 -1235 45 -92 158 -206 254 -256 97 -50 176 -67 317 -67
l117 0 0 -430 c0 -267 4 -430 10 -430 5 0 298 193 651 430 l642 430 875 0
c962 0 929 -2 1060 62 77 38 178 129 231 209 23 34 53 98 68 142 l28 82 3 793
c2 435 -1 792 -5 792 -4 0 -222 -213 -483 -474 l-475 -473 -435 -47 -435 -46
-482 0 -483 0 0 145 0 145 462 2 463 3 22 195 c12 107 22 203 22 213 1 16 -42
17 -774 17 l-775 0 0 145 0 145 823 0 822 0 528 528 c290 290 527 530 527 535
0 10 -3114 7 -3165 -3z m795 -1925 l0 -145 -165 0 -165 0 0 145 0 145 165 0
165 0 0 -145z"/>
<path d="M2853 3028 l-61 -63 -26 -244 c-15 -134 -25 -245 -23 -248 3 -2 114
8 248 22 l244 27 65 64 65 64 -220 220 c-121 121 -222 220 -225 220 -3 0 -33
-28 -67 -62z"/>
</g>
</svg>
