<?xml version="1.0" standalone="no"?>
<!DOCTYPE svg PUBLIC "-//W3C//DTD SVG 20010904//EN"
 "http://www.w3.org/TR/2001/REC-SVG-20010904/DTD/svg10.dtd">
<svg version="1.0" xmlns="http://www.w3.org/2000/svg"
 width="512.000000pt" height="512.000000pt" viewBox="0 0 512.000000 512.000000"
 preserveAspectRatio="xMidYMid meet">
<metadata>
Created by potrace 1.16, written by Peter Selinger 2001-2019
</metadata>
<g transform="translate(0.000000,512.000000) scale(0.100000,-0.100000)"
fill="#000000" stroke="none">
<path d="M3819 5110 c-442 -80 -785 -398 -899 -831 -30 -117 -38 -339 -16
-466 76 -438 393 -778 836 -895 107 -28 334 -36 457 -14 464 81 821 435 908
901 26 134 16 366 -19 494 -107 383 -404 681 -786 787 -82 22 -119 26 -265 29
-93 2 -191 0 -216 -5z"/>
<path d="M913 4625 c-273 -49 -529 -208 -694 -428 -75 -101 -150 -252 -186
-377 l-28 -95 -3 -1369 c-3 -1497 -5 -1444 55 -1609 118 -329 361 -572 690
-690 165 -60 112 -58 1609 -55 l1369 3 94 28 c201 59 355 150 501 298 143 145
232 300 292 516 23 78 23 83 26 991 l3 913 -39 -20 c-60 -30 -229 -87 -322
-107 -122 -27 -431 -27 -545 0 -303 70 -516 185 -721 390 -205 206 -330 438
-391 726 -26 121 -25 421 1 540 20 92 76 262 107 322 l19 38 -882 -1 c-678 -1
-900 -4 -955 -14z"/>
</g>
</svg>
