<?xml version="1.0" standalone="no"?>
<!DOCTYPE svg PUBLIC "-//W3C//DTD SVG 20010904//EN"
 "http://www.w3.org/TR/2001/REC-SVG-20010904/DTD/svg10.dtd">
<svg version="1.0" xmlns="http://www.w3.org/2000/svg"
 width="512.000000pt" height="512.000000pt" viewBox="0 0 512.000000 512.000000"
 preserveAspectRatio="xMidYMid meet">
<metadata>
Created by potrace 1.16, written by Peter Selinger 2001-2019
</metadata>
<g transform="translate(0.000000,512.000000) scale(0.100000,-0.100000)"
fill="#000000" stroke="none">
<path d="M572 5100 c-94 -25 -148 -49 -232 -105 -136 -91 -255 -245 -308 -402
l-27 -78 -3 -875 c-3 -988 -6 -951 73 -1108 98 -195 256 -329 463 -392 l72
-22 0 -259 0 -260 38 -40 c28 -31 47 -42 79 -46 97 -13 93 -16 413 303 l296
294 187 0 187 0 0 203 c0 334 19 476 81 630 133 329 415 564 769 642 55 12
152 18 363 22 l287 6 0 427 c0 393 -2 433 -20 506 -68 272 -280 486 -548 555
-72 18 -119 19 -1086 18 -961 0 -1015 -1 -1084 -19z m1251 -629 c108 -43 204
-139 249 -249 19 -47 23 -76 23 -167 0 -104 -2 -114 -33 -179 -24 -52 -53 -89
-117 -152 -98 -97 -123 -141 -137 -238 -12 -85 -29 -121 -71 -146 -42 -26
-113 -26 -151 -1 -49 32 -66 69 -66 141 0 150 57 275 184 407 49 51 93 98 98
105 4 7 8 38 8 68 0 95 -55 150 -148 150 -92 0 -143 -47 -157 -145 -14 -97
-61 -145 -145 -145 -87 0 -140 59 -140 156 0 96 39 197 108 275 52 59 106 96
184 125 84 32 223 30 311 -5z m-89 -1490 c43 -29 66 -70 66 -121 0 -80 -60
-140 -140 -140 -80 0 -140 60 -140 140 0 80 60 140 140 140 27 0 56 -8 74 -19z"/>
<path d="M2670 3290 c-41 -11 -113 -39 -160 -62 -69 -34 -103 -60 -180 -138
-78 -77 -104 -111 -138 -180 -84 -168 -82 -149 -82 -950 0 -801 -2 -782 82
-950 34 -69 60 -103 138 -180 77 -78 111 -104 180 -138 124 -62 216 -82 372
-82 l128 0 0 -260 0 -261 38 -40 c28 -31 47 -42 79 -46 93 -12 89 -16 409 307
l298 300 316 0 c283 0 325 2 396 20 273 69 486 279 555 549 18 69 19 120 19
781 0 666 -1 711 -19 782 -69 268 -283 480 -555 548 -76 19 -112 20 -940 19
-817 0 -865 -1 -936 -19z m1764 -909 c15 -10 37 -32 47 -47 24 -36 25 -111 3
-144 -24 -36 -892 -907 -938 -941 -46 -34 -116 -40 -156 -13 -37 25 -307 293
-341 338 -71 96 -7 226 111 226 57 0 72 -10 198 -134 l102 -101 403 401 c221
221 413 409 427 418 33 22 108 21 144 -3z"/>
</g>
</svg>
