<?xml version="1.0" standalone="no"?>
<!DOCTYPE svg PUBLIC "-//W3C//DTD SVG 20010904//EN"
 "http://www.w3.org/TR/2001/REC-SVG-20010904/DTD/svg10.dtd">
<svg version="1.0" xmlns="http://www.w3.org/2000/svg"
 width="512.000000pt" height="512.000000pt" viewBox="0 0 512.000000 512.000000"
 preserveAspectRatio="xMidYMid meet">
<metadata>
Created by potrace 1.16, written by Peter Selinger 2001-2019
</metadata>
<g transform="translate(0.000000,512.000000) scale(0.100000,-0.100000)"
fill="#000000" stroke="none">
<path d="M348 5101 c-158 -51 -280 -173 -328 -329 -19 -62 -20 -95 -20 -982 0
-884 1 -920 20 -981 23 -75 66 -148 122 -206 l41 -42 -52 -57 c-58 -63 -91
-121 -115 -203 -14 -49 -16 -157 -16 -972 0 -883 1 -919 20 -980 48 -157 172
-281 328 -329 62 -19 95 -20 982 -20 884 0 920 1 981 20 75 23 148 66 207 123
l42 41 43 -41 c58 -57 131 -100 206 -123 61 -19 97 -20 981 -20 887 0 920 1
982 20 156 48 280 172 328 329 19 61 20 97 20 981 0 884 -1 920 -20 981 -23
75 -66 148 -123 206 l-41 43 41 43 c57 58 100 131 123 206 19 61 20 97 20 981
0 887 -1 920 -20 982 -48 156 -172 280 -329 328 -61 19 -97 20 -981 20 -884 0
-920 -1 -981 -20 -75 -23 -148 -66 -206 -122 l-42 -41 -57 52 c-63 58 -121 91
-203 115 -49 14 -157 16 -975 15 -863 0 -925 -1 -978 -18z m1915 -205 c56 -21
134 -94 162 -151 19 -39 20 -69 23 -935 2 -656 0 -906 -9 -935 -25 -86 -102
-164 -194 -196 -33 -12 -192 -14 -915 -14 -723 0 -882 2 -915 14 -88 30 -160
101 -196 191 -11 29 -14 184 -17 875 -2 519 1 864 7 903 22 144 113 238 249
262 26 4 432 7 902 6 805 -1 858 -2 903 -20z m2460 0 c56 -21 134 -94 162
-151 19 -39 20 -69 23 -935 2 -656 0 -906 -9 -935 -25 -86 -102 -164 -194
-196 -33 -12 -192 -14 -915 -14 -723 0 -882 2 -915 14 -91 32 -164 105 -196
196 -12 33 -14 192 -14 915 0 818 1 878 18 927 34 98 127 174 235 193 26 4
432 7 902 6 805 -1 858 -2 903 -20z m-2473 -2455 c88 -35 161 -109 188 -190
17 -48 17 -1794 0 -1842 -28 -84 -105 -159 -193 -190 -59 -21 -1771 -21 -1830
0 -59 21 -121 66 -153 114 -59 86 -57 46 -57 997 0 818 1 878 18 927 35 99
125 174 234 193 27 4 433 7 903 6 706 -1 861 -4 890 -15z m2460 0 c90 -36 161
-108 191 -196 12 -33 14 -192 14 -915 0 -723 -2 -882 -14 -915 -32 -91 -105
-164 -196 -196 -59 -21 -1771 -21 -1830 0 -92 32 -169 110 -194 196 -9 29 -11
279 -9 935 l3 895 25 48 c43 85 119 140 220 157 25 4 430 7 900 6 706 -1 861
-4 890 -15z"/>
<path d="M1335 4292 c-113 -7 -225 -60 -312 -147 -266 -266 -153 -725 205
-835 122 -38 304 -20 397 39 l30 19 37 -35 c51 -49 111 -56 156 -18 56 47 53
105 -10 171 l-30 32 20 38 c55 109 69 268 32 385 -69 226 -281 367 -525 351z
m149 -229 c104 -36 186 -154 186 -269 0 -34 -5 -75 -10 -89 l-10 -27 -40 36
c-34 30 -47 36 -85 36 -35 0 -52 -6 -70 -24 -49 -49 -45 -104 11 -165 l35 -39
-37 -12 c-49 -16 -160 -8 -209 15 -175 84 -222 313 -95 458 83 95 200 124 324
80z"/>
<path d="M3490 4287 c-24 -8 -41 -23 -53 -47 -16 -32 -17 -63 -14 -355 3 -283
5 -326 22 -370 24 -66 115 -157 192 -193 52 -24 69 -27 168 -27 99 0 116 3
168 27 75 36 159 115 188 181 23 51 24 60 27 382 2 315 2 331 -17 362 -36 57
-122 61 -168 8 -23 -26 -23 -29 -23 -334 0 -304 0 -308 -23 -342 -37 -55 -91
-80 -163 -77 -49 3 -69 10 -99 32 -63 48 -65 60 -65 396 l0 300 -27 29 c-34
35 -66 43 -113 28z"/>
<path d="M1256 1804 l-26 -27 0 -447 0 -447 25 -26 c44 -43 106 -43 150 0 l25
26 0 447 0 447 -26 27 c-21 21 -36 26 -74 26 -38 0 -53 -5 -74 -26z"/>
<path d="M3467 1805 c-43 -43 -43 -106 -1 -149 32 -31 61 -36 230 -36 79 0
144 -2 144 -5 0 -2 -94 -149 -210 -327 -235 -360 -238 -367 -181 -430 l29 -33
269 -3 c147 -2 288 0 312 3 92 14 133 107 77 172 l-24 28 -196 5 -197 5 212
325 c120 184 213 338 216 355 6 37 -18 89 -46 105 -12 6 -131 10 -314 10
l-294 0 -26 -25z"/>
</g>
</svg>
